<svg xmlns="http://www.w3.org/2000/svg" width="18.934" height="19.064" viewBox="0 0 18.934 19.064">
  <path id="basketSmall" d="M13.4,17.2a.95.95,0,0,0,.95-.95v-1.9a.95.95,0,0,0-1.9,0v1.9A.95.95,0,0,0,13.4,17.2Zm-3.8,0a.95.95,0,0,0,.95-.95v-1.9a.95.95,0,1,0-1.9,0v1.9A.95.95,0,0,0,9.6,17.2ZM18.154,5.8H16.842L15.2,2.519a.95.95,0,1,0-1.691.855L14.714,5.8H8.292L9.5,3.374a.95.95,0,0,0-1.691-.855L6.164,5.8H4.852a2.85,2.85,0,0,0-.874,5.548l.7,7.088A2.85,2.85,0,0,0,7.532,21h7.962a2.85,2.85,0,0,0,2.85-2.565l.7-7.088A2.85,2.85,0,0,0,18.154,5.8Zm-1.72,12.446a.95.95,0,0,1-.95.855H7.522a.95.95,0,0,1-.95-.855L5.9,11.5H17.108ZM18.154,9.6H4.852a.95.95,0,1,1,0-1.9h13.3a.95.95,0,0,1,0,1.9Z" transform="translate(-2.045 -1.934)" fill="#262626"/>
</svg>
