<svg xmlns="http://www.w3.org/2000/svg" width="27.874" height="28.066" viewBox="0 0 27.874 28.066">
  <path id="basket" d="M18.766,24.405a1.4,1.4,0,0,0,1.4-1.4v-2.8a1.4,1.4,0,0,0-2.8,0v2.8A1.4,1.4,0,0,0,18.766,24.405Zm-5.595,0a1.4,1.4,0,0,0,1.4-1.4v-2.8a1.4,1.4,0,1,0-2.8,0v2.8A1.4,1.4,0,0,0,13.171,24.405ZM25.76,7.621h-1.93L21.41,2.8a1.4,1.4,0,1,0-2.49,1.259L20.7,7.621H11.241l1.776-3.567A1.4,1.4,0,0,0,10.528,2.8L8.108,7.621H6.178a4.2,4.2,0,0,0-1.287,8.168L5.926,26.224A4.2,4.2,0,0,0,10.122,30H21.843a4.2,4.2,0,0,0,4.2-3.776l1.035-10.434A4.2,4.2,0,0,0,25.76,7.621ZM23.228,25.944a1.4,1.4,0,0,1-1.4,1.259H10.108a1.4,1.4,0,0,1-1.4-1.259l-.993-9.931h16.5ZM25.76,13.216H6.178a1.4,1.4,0,1,1,0-2.8H25.76a1.4,1.4,0,1,1,0,2.8Z" transform="translate(-2.045 -1.934)" fill="#262626"/>
</svg>
