<svg xmlns="http://www.w3.org/2000/svg" width="17.073" height="18.989" viewBox="0 0 17.073 18.989">
  <path id="cartWhite" d="M20.57,14.328a2.845,2.845,0,0,0-1.8-2.636l1.773-6.638a.909.909,0,0,0-.92-1.157H6.63L6.317,2.7A.948.948,0,0,0,5.4,2H3.5V3.9H4.666l2.352,8.782a.948.948,0,0,0,.948.7h9.758a.948.948,0,1,1,0,1.9H5.4a.948.948,0,1,0,0,1.9H6.516a2.845,2.845,0,1,0,5.349,0H14.1a2.845,2.845,0,1,0,5.519.948,2.788,2.788,0,0,0-.379-1.394A2.845,2.845,0,0,0,20.57,14.328Zm-3.708-2.845H8.716L7.142,5.793H18.389ZM9.19,19.07a.948.948,0,1,1,.948-.948A.948.948,0,0,1,9.19,19.07Zm7.587,0a.948.948,0,1,1,.948-.948A.948.948,0,0,1,16.777,19.07Z" transform="translate(-3.5 -2)" fill="#ececec"/>
</svg>
