<svg xmlns="http://www.w3.org/2000/svg" width="25.233" height="28.066" viewBox="0 0 25.233 28.066">
  <path id="cart_1_" data-name="cart (1)" d="M28.729,20.221a4.2,4.2,0,0,0-2.663-3.9l2.621-9.811a1.343,1.343,0,0,0-1.36-1.71H8.125L7.663,3.037A1.4,1.4,0,0,0,6.3,2H3.5V4.8H5.224L8.7,17.782a1.4,1.4,0,0,0,1.4,1.037H24.524a1.4,1.4,0,1,1,0,2.8H6.3a1.4,1.4,0,0,0,0,2.8H7.957a4.2,4.2,0,1,0,7.905,0H19.17a4.2,4.2,0,1,0,8.158,1.4,4.121,4.121,0,0,0-.561-2.06A4.2,4.2,0,0,0,28.729,20.221Zm-5.48-4.2H11.209L8.882,7.607H25.506ZM11.91,27.229a1.4,1.4,0,1,1,1.4-1.4A1.4,1.4,0,0,1,11.91,27.229Zm11.213,0a1.4,1.4,0,1,1,1.4-1.4A1.4,1.4,0,0,1,23.123,27.229Z" transform="translate(-3.5 -2)" fill="#262626"/>
</svg>
