<svg xmlns="http://www.w3.org/2000/svg" width="18.004" height="18.989" viewBox="0 0 18.004 18.989">
  <g id="editSmall" transform="translate(-3.996 -3.058)">
    <g id="edit" transform="translate(3.996 3.058)">
      <rect id="Rectangle_209" data-name="Rectangle 209" width="18" height="18" transform="translate(0.004 0.989)" fill="#ececec" opacity="0"/>
      <path id="Path_22" data-name="Path 22" d="M21.261,7.737,18.19,4.666a2.242,2.242,0,0,0-2.981-.078L5.121,14.674a2.242,2.242,0,0,0-.639,1.356L4,20.7a1.118,1.118,0,0,0,1.121,1.222h.1L9.9,21.5a2.242,2.242,0,0,0,1.356-.639L21.34,10.774a2.152,2.152,0,0,0-.078-3.037ZM9.694,19.259l-3.362.314.3-3.362,6.333-6.254,3.026,3.026ZM17.45,11.48l-3-3,2.186-2.242,3.06,3.06Z" transform="translate(-3.996 -4.058)" fill="#ececec"/>
    </g>
  </g>
</svg>
