<svg xmlns="http://www.w3.org/2000/svg" width="22.796" height="22.796" viewBox="0 0 22.796 22.796">
  <path id="filter" d="M24.529,5.533H23.047a3.8,3.8,0,0,0-7.166,0H4.266a1.266,1.266,0,0,0,0,2.533H15.88a3.8,3.8,0,0,0,7.166,0h1.483a1.266,1.266,0,1,0,0-2.533ZM19.464,8.066A1.266,1.266,0,1,0,18.2,6.8,1.266,1.266,0,0,0,19.464,8.066ZM3,14.4a1.266,1.266,0,0,1,1.266-1.266H5.749a3.8,3.8,0,0,1,7.166,0H24.529a1.266,1.266,0,1,1,0,2.533H12.915a3.8,3.8,0,0,1-7.166,0H4.266A1.266,1.266,0,0,1,3,14.4Zm6.332,1.266A1.266,1.266,0,1,0,8.066,14.4,1.266,1.266,0,0,0,9.332,15.664ZM4.266,20.73a1.266,1.266,0,1,0,0,2.533H15.88a3.8,3.8,0,0,0,7.166,0h1.483a1.266,1.266,0,1,0,0-2.533H23.047a3.8,3.8,0,0,0-7.166,0ZM20.73,22a1.266,1.266,0,1,1-1.266-1.266A1.266,1.266,0,0,1,20.73,22Z" transform="translate(-3 -3)" fill="#fff" fill-rule="evenodd"/>
</svg>
