<svg xmlns="http://www.w3.org/2000/svg" width="28.024" height="28.025" viewBox="0 0 28.024 28.025">
  <path id="stay-in-home" d="M29.554,13.564,16.943,2.354a1.4,1.4,0,0,0-1.861,0L2.471,13.564a1.4,1.4,0,1,0,1.861,2.1L4.8,15.24V28.624a1.4,1.4,0,0,0,1.4,1.4H25.821a1.4,1.4,0,0,0,1.4-1.4V15.24l.471.418a1.4,1.4,0,0,0,1.861-2.1ZM12.067,27.222a4.179,4.179,0,0,1,7.891,0Zm1.844-7.707a2.1,2.1,0,1,1,2.1,2.1A2.1,2.1,0,0,1,13.91,19.516ZM24.42,27.222H22.877A7.007,7.007,0,0,0,19.712,22.7a4.9,4.9,0,1,0-7.4,0,7.007,7.007,0,0,0-3.165,4.523H7.6V12.749l8.407-7.473,8.407,7.473Z" transform="translate(-2 -2)" fill="#262626"/>
</svg>
