<svg xmlns="http://www.w3.org/2000/svg" width="28.024" height="8.075" viewBox="0 0 28.024 8.075">
  <path id="more_2_" data-name="more (2)" d="M26.45,31.537a4.037,4.037,0,1,1,4.037,4.037A4.042,4.042,0,0,1,26.45,31.537Zm6.175,0a2.137,2.137,0,1,0-2.137,2.137A2.14,2.14,0,0,0,32.624,31.537Zm-16.15,0a4.037,4.037,0,1,1,4.037,4.037A4.042,4.042,0,0,1,16.475,31.537Zm6.175,0a2.137,2.137,0,1,0-2.137,2.137A2.14,2.14,0,0,0,22.65,31.537Zm-16.15,0a4.037,4.037,0,1,1,4.037,4.037A4.042,4.042,0,0,1,6.5,31.537Zm6.175,0a2.137,2.137,0,1,0-2.137,2.137A2.14,2.14,0,0,0,12.675,31.537Z" transform="translate(-6.5 -27.5)" fill="#262626"/>
</svg>
