<svg xmlns="http://www.w3.org/2000/svg" width="6.163" height="21.389" viewBox="0 0 6.163 21.389">
  <path id="moreVertical" d="M21.726,30.581a3.081,3.081,0,1,1,3.081,3.081A3.085,3.085,0,0,1,21.726,30.581Zm4.713,0a1.631,1.631,0,1,0-1.631,1.631A1.633,1.633,0,0,0,26.438,30.581Zm-12.326,0a3.081,3.081,0,1,1,3.081,3.081A3.085,3.085,0,0,1,14.113,30.581Zm4.713,0a1.631,1.631,0,1,0-1.631,1.631A1.633,1.633,0,0,0,18.826,30.581Zm-12.326,0a3.081,3.081,0,1,1,3.081,3.081A3.085,3.085,0,0,1,6.5,30.581Zm4.713,0a1.631,1.631,0,1,0-1.631,1.631A1.633,1.633,0,0,0,11.213,30.581Z" transform="translate(33.663 -6.5) rotate(90)" fill="#262626"/>
</svg>
