<svg xmlns="http://www.w3.org/2000/svg" width="28" height="28" viewBox="0 0 28 28">
  <path id="profile_1_" data-name="profile (1)" d="M16.019,2A14.013,14.013,0,0,0,5.709,25.488h0a14.034,14.034,0,0,0,20.619,0h0A14.013,14.013,0,0,0,16.019,2Zm0,25.226a11.226,11.226,0,0,1-7.785-3.153,8.419,8.419,0,0,1,15.569,0A11.226,11.226,0,0,1,16.019,27.226ZM13.214,13.212a2.805,2.805,0,1,1,2.805,2.8A2.8,2.8,0,0,1,13.214,13.212Zm12.5,8.409a11.218,11.218,0,0,0-5.484-4.737,5.608,5.608,0,1,0-8.416,0A11.218,11.218,0,0,0,6.327,21.62,11.092,11.092,0,0,1,4.8,16.014a11.221,11.221,0,0,1,22.442,0A11.092,11.092,0,0,1,25.711,21.62Z" transform="translate(-2.019 -2)" fill="#262626"/>
</svg>
