<svg xmlns="http://www.w3.org/2000/svg" width="22.452" height="28.066" viewBox="0 0 22.452 28.066">
  <path id="location_1_" data-name="location" d="M15.226,2A11.226,11.226,0,0,0,4,13.226c0,7.578,9.893,16.138,10.314,16.5a1.4,1.4,0,0,0,1.824,0c.491-.365,10.314-8.925,10.314-16.5A11.226,11.226,0,0,0,15.226,2Zm0,24.768c-2.989-2.807-8.42-8.855-8.42-13.542a8.42,8.42,0,1,1,16.839,0C23.646,17.913,18.215,23.975,15.226,26.768Zm0-19.155a5.613,5.613,0,1,0,5.613,5.613A5.613,5.613,0,0,0,15.226,7.613Zm0,8.42a2.807,2.807,0,1,1,2.807-2.807A2.807,2.807,0,0,1,15.226,16.033Z" transform="translate(-4 -2)"/>
</svg>
